<mxfile host="app.diagrams.net" modified="2023-01-02T19:29:45.122Z" agent="5.0 (Macintosh; Intel Mac OS X 10_15_7) AppleWebKit/605.1.15 (KHTML, like Gecko) Version/16.1 Safari/605.1.15" etag="JTYWt0flPuwpQbCuWxTk" version="20.7.4" type="github">
  <diagram name="Page-1" id="9361dd3d-8414-5efd-6122-117bd74ce7a7">
    <mxGraphModel dx="1114" dy="1447" grid="1" gridSize="10" guides="1" tooltips="1" connect="1" arrows="1" fold="1" page="0" pageScale="1.5" pageWidth="826" pageHeight="1169" background="none" math="0" shadow="0">
      <root>
        <mxCell id="0" />
        <mxCell id="1" parent="0" />
        <mxCell id="3" value="validate()" style="edgeStyle=none;verticalLabelPosition=top;verticalAlign=bottom;labelPosition=left;align=right" parent="1" edge="1">
          <mxGeometry x="110" y="49.5" width="100" height="100" as="geometry">
            <mxPoint x="110" y="149.5" as="sourcePoint" />
            <mxPoint x="200" y="149.5" as="targetPoint" />
          </mxGeometry>
        </mxCell>
        <mxCell id="12" value="" style="edgeStyle=none;verticalLabelPosition=top;verticalAlign=bottom;labelPosition=left;align=right;endArrow=none;startArrow=classic;dashed=1" parent="1" edge="1">
          <mxGeometry x="110" y="179.75887345679013" width="100" height="100" as="geometry">
            <mxPoint x="110" y="279.7588734567901" as="sourcePoint" />
            <mxPoint x="200" y="279.7588734567901" as="targetPoint" />
          </mxGeometry>
        </mxCell>
        <mxCell id="TK9g91j72fYZAsuF8-Qv-100" value="" style="shape=umlLifeline;participant=umlActor;perimeter=lifelinePerimeter;whiteSpace=wrap;html=1;container=1;collapsible=0;recursiveResize=0;verticalAlign=top;spacingTop=36;outlineConnect=0;" vertex="1" parent="1">
          <mxGeometry x="450" y="-600" width="20" height="590" as="geometry" />
        </mxCell>
        <mxCell id="TK9g91j72fYZAsuF8-Qv-101" value="Klingel/Anzeige" style="shape=umlLifeline;perimeter=lifelinePerimeter;whiteSpace=wrap;html=1;container=1;collapsible=0;recursiveResize=0;outlineConnect=0;" vertex="1" parent="1">
          <mxGeometry x="600" y="-600" width="120" height="590" as="geometry" />
        </mxCell>
        <mxCell id="TK9g91j72fYZAsuF8-Qv-123" value="Tür auf-Nachricht schicken" style="html=1;verticalAlign=bottom;endArrow=open;endSize=8;rounded=0;entryX=1.1;entryY=0.714;entryDx=0;entryDy=0;entryPerimeter=0;" edge="1" parent="TK9g91j72fYZAsuF8-Qv-101" target="TK9g91j72fYZAsuF8-Qv-130">
          <mxGeometry relative="1" as="geometry">
            <mxPoint x="300" y="380" as="sourcePoint" />
            <mxPoint x="60" y="380" as="targetPoint" />
          </mxGeometry>
        </mxCell>
        <mxCell id="TK9g91j72fYZAsuF8-Qv-130" value="" style="html=1;points=[];perimeter=orthogonalPerimeter;fillColor=#dae8fc;strokeColor=#6c8ebf;" vertex="1" parent="TK9g91j72fYZAsuF8-Qv-101">
          <mxGeometry x="55" y="80" width="10" height="420" as="geometry" />
        </mxCell>
        <mxCell id="TK9g91j72fYZAsuF8-Qv-102" value="App(IOS/ Android)" style="shape=umlLifeline;perimeter=lifelinePerimeter;whiteSpace=wrap;html=1;container=1;collapsible=0;recursiveResize=0;outlineConnect=0;" vertex="1" parent="1">
          <mxGeometry x="840" y="-600" width="120" height="590" as="geometry" />
        </mxCell>
        <mxCell id="TK9g91j72fYZAsuF8-Qv-131" value="" style="html=1;points=[];perimeter=orthogonalPerimeter;fillColor=#dae8fc;strokeColor=#6c8ebf;" vertex="1" parent="TK9g91j72fYZAsuF8-Qv-102">
          <mxGeometry x="55" y="120" width="10" height="330" as="geometry" />
        </mxCell>
        <mxCell id="TK9g91j72fYZAsuF8-Qv-103" value="Kamera/Audio" style="shape=umlLifeline;perimeter=lifelinePerimeter;whiteSpace=wrap;html=1;container=1;collapsible=0;recursiveResize=0;outlineConnect=0;" vertex="1" parent="1">
          <mxGeometry x="1080" y="-600" width="120" height="590" as="geometry" />
        </mxCell>
        <mxCell id="TK9g91j72fYZAsuF8-Qv-132" value="" style="html=1;points=[];perimeter=orthogonalPerimeter;fillColor=#dae8fc;strokeColor=#6c8ebf;" vertex="1" parent="TK9g91j72fYZAsuF8-Qv-103">
          <mxGeometry x="55" y="140" width="10" height="360" as="geometry" />
        </mxCell>
        <mxCell id="TK9g91j72fYZAsuF8-Qv-104" value="Tür" style="shape=umlLifeline;perimeter=lifelinePerimeter;whiteSpace=wrap;html=1;container=1;collapsible=0;recursiveResize=0;outlineConnect=0;" vertex="1" parent="1">
          <mxGeometry x="1320" y="-600" width="120" height="600" as="geometry" />
        </mxCell>
        <mxCell id="TK9g91j72fYZAsuF8-Qv-133" value="" style="html=1;points=[];perimeter=orthogonalPerimeter;fillColor=#dae8fc;strokeColor=#6c8ebf;" vertex="1" parent="TK9g91j72fYZAsuF8-Qv-104">
          <mxGeometry x="60" y="360" width="10" height="140" as="geometry" />
        </mxCell>
        <mxCell id="TK9g91j72fYZAsuF8-Qv-105" value="Klingel betätigen" style="html=1;verticalAlign=bottom;endArrow=block;rounded=0;startArrow=none;" edge="1" parent="1" target="TK9g91j72fYZAsuF8-Qv-101">
          <mxGeometry x="0.0025" width="80" relative="1" as="geometry">
            <mxPoint x="460" y="-520" as="sourcePoint" />
            <mxPoint x="540" y="-520" as="targetPoint" />
            <Array as="points" />
            <mxPoint as="offset" />
          </mxGeometry>
        </mxCell>
        <mxCell id="TK9g91j72fYZAsuF8-Qv-106" value="push benachritignug&amp;nbsp;" style="html=1;verticalAlign=bottom;endArrow=block;rounded=0;exitX=1;exitY=0.095;exitDx=0;exitDy=0;exitPerimeter=0;" edge="1" parent="1" source="TK9g91j72fYZAsuF8-Qv-130" target="TK9g91j72fYZAsuF8-Qv-102">
          <mxGeometry x="0.0042" width="80" relative="1" as="geometry">
            <mxPoint x="660" y="-480" as="sourcePoint" />
            <mxPoint x="859.5" y="-500" as="targetPoint" />
            <Array as="points">
              <mxPoint x="780" y="-480" />
            </Array>
            <mxPoint as="offset" />
          </mxGeometry>
        </mxCell>
        <mxCell id="TK9g91j72fYZAsuF8-Qv-113" value="Anruf annehmen" style="html=1;verticalAlign=bottom;endArrow=block;rounded=0;exitX=1;exitY=0.061;exitDx=0;exitDy=0;exitPerimeter=0;" edge="1" parent="1" source="TK9g91j72fYZAsuF8-Qv-131">
          <mxGeometry x="0.0025" width="80" relative="1" as="geometry">
            <mxPoint x="910" y="-460" as="sourcePoint" />
            <mxPoint x="1140" y="-460" as="targetPoint" />
            <Array as="points" />
            <mxPoint as="offset" />
          </mxGeometry>
        </mxCell>
        <mxCell id="TK9g91j72fYZAsuF8-Qv-115" value="" style="line;strokeWidth=1;fillColor=none;align=left;verticalAlign=middle;spacingTop=-1;spacingLeft=3;spacingRight=3;rotatable=0;labelPosition=right;points=[];portConstraint=eastwest;strokeColor=inherit;dashed=1;" vertex="1" parent="1">
          <mxGeometry x="380" y="-404" width="820" height="8" as="geometry" />
        </mxCell>
        <mxCell id="TK9g91j72fYZAsuF8-Qv-116" value="{Wenn Anruf erwünscht wird}" style="text;html=1;strokeColor=none;fillColor=none;align=center;verticalAlign=middle;whiteSpace=wrap;rounded=0;dashed=1;" vertex="1" parent="1">
          <mxGeometry x="380" y="-460" width="70" height="30" as="geometry" />
        </mxCell>
        <mxCell id="TK9g91j72fYZAsuF8-Qv-118" value="{else}" style="text;html=1;strokeColor=none;fillColor=none;align=center;verticalAlign=middle;whiteSpace=wrap;rounded=0;dashed=1;" vertex="1" parent="1">
          <mxGeometry x="380" y="-396" width="70" height="30" as="geometry" />
        </mxCell>
        <mxCell id="TK9g91j72fYZAsuF8-Qv-119" value="Kamera anschalten" style="html=1;verticalAlign=bottom;endArrow=open;dashed=1;endSize=8;rounded=0;entryX=1;entryY=0.212;entryDx=0;entryDy=0;entryPerimeter=0;exitX=-0.3;exitY=0.148;exitDx=0;exitDy=0;exitPerimeter=0;" edge="1" parent="1" source="TK9g91j72fYZAsuF8-Qv-131" target="TK9g91j72fYZAsuF8-Qv-130">
          <mxGeometry relative="1" as="geometry">
            <mxPoint x="890" y="-431" as="sourcePoint" />
            <mxPoint x="670" y="-430" as="targetPoint" />
          </mxGeometry>
        </mxCell>
        <mxCell id="TK9g91j72fYZAsuF8-Qv-120" value="Tür aufmachen" style="html=1;verticalAlign=bottom;endArrow=block;rounded=0;exitX=1.1;exitY=0.727;exitDx=0;exitDy=0;exitPerimeter=0;" edge="1" parent="1" source="TK9g91j72fYZAsuF8-Qv-131" target="TK9g91j72fYZAsuF8-Qv-104">
          <mxGeometry x="-0.308" width="80" relative="1" as="geometry">
            <mxPoint x="910" y="-240" as="sourcePoint" />
            <mxPoint x="1310" y="-220" as="targetPoint" />
            <Array as="points">
              <mxPoint x="1020" y="-240" />
            </Array>
            <mxPoint as="offset" />
          </mxGeometry>
        </mxCell>
        <mxCell id="TK9g91j72fYZAsuF8-Qv-121" value="Besuch abgelehnt-Nachricht schicken" style="html=1;verticalAlign=bottom;endArrow=open;rounded=0;exitX=0.1;exitY=0.973;exitDx=0;exitDy=0;exitPerimeter=0;entryX=1;entryY=0.862;entryDx=0;entryDy=0;entryPerimeter=0;" edge="1" parent="1" source="TK9g91j72fYZAsuF8-Qv-131" target="TK9g91j72fYZAsuF8-Qv-130">
          <mxGeometry relative="1" as="geometry">
            <mxPoint x="900" y="-280" as="sourcePoint" />
            <mxPoint x="670" y="-160" as="targetPoint" />
            <Array as="points" />
          </mxGeometry>
        </mxCell>
        <mxCell id="TK9g91j72fYZAsuF8-Qv-124" value="Alternativ" style="shape=umlFrame;whiteSpace=wrap;html=1;" vertex="1" parent="1">
          <mxGeometry x="380" y="-290" width="1100" height="170" as="geometry" />
        </mxCell>
        <mxCell id="TK9g91j72fYZAsuF8-Qv-125" value="" style="line;strokeWidth=1;fillColor=none;align=left;verticalAlign=middle;spacingTop=-1;spacingLeft=3;spacingRight=3;rotatable=0;labelPosition=right;points=[];portConstraint=eastwest;strokeColor=inherit;dashed=1;" vertex="1" parent="1">
          <mxGeometry x="380" y="-200" width="1100" height="8" as="geometry" />
        </mxCell>
        <mxCell id="TK9g91j72fYZAsuF8-Qv-126" value="{Wenn Besuch akzeptiert wird}" style="text;html=1;strokeColor=none;fillColor=none;align=center;verticalAlign=middle;whiteSpace=wrap;rounded=0;dashed=1;" vertex="1" parent="1">
          <mxGeometry x="380" y="-240" width="60" height="20" as="geometry" />
        </mxCell>
        <mxCell id="TK9g91j72fYZAsuF8-Qv-129" value="{Wenn Besuch abgelehnt &amp;nbsp;wird}" style="text;html=1;strokeColor=none;fillColor=none;align=center;verticalAlign=middle;whiteSpace=wrap;rounded=0;dashed=1;" vertex="1" parent="1">
          <mxGeometry x="380" y="-170" width="60" height="20" as="geometry" />
        </mxCell>
        <mxCell id="TK9g91j72fYZAsuF8-Qv-134" value="" style="html=1;verticalAlign=bottom;endArrow=none;rounded=0;" edge="1" parent="1">
          <mxGeometry x="0.0025" width="80" relative="1" as="geometry">
            <mxPoint x="460" y="-520" as="sourcePoint" />
            <mxPoint x="470" y="-520" as="targetPoint" />
            <Array as="points" />
            <mxPoint as="offset" />
          </mxGeometry>
        </mxCell>
        <mxCell id="TK9g91j72fYZAsuF8-Qv-114" value="Anruf ablehnen" style="html=1;verticalAlign=bottom;endArrow=open;dashed=1;endSize=8;rounded=0;exitX=-0.1;exitY=0.303;exitDx=0;exitDy=0;exitPerimeter=0;entryX=1;entryY=0.331;entryDx=0;entryDy=0;entryPerimeter=0;" edge="1" parent="1" source="TK9g91j72fYZAsuF8-Qv-131" target="TK9g91j72fYZAsuF8-Qv-130">
          <mxGeometry x="-0.0016" relative="1" as="geometry">
            <mxPoint x="890" y="-380" as="sourcePoint" />
            <mxPoint x="670" y="-380" as="targetPoint" />
            <Array as="points">
              <mxPoint x="730" y="-380" />
            </Array>
            <mxPoint as="offset" />
          </mxGeometry>
        </mxCell>
        <mxCell id="TK9g91j72fYZAsuF8-Qv-135" value="frame" style="shape=umlFrame;whiteSpace=wrap;html=1;" vertex="1" parent="1">
          <mxGeometry x="380" y="-500" width="820" height="140" as="geometry" />
        </mxCell>
      </root>
    </mxGraphModel>
  </diagram>
</mxfile>
